<?xml version="1.0" encoding="utf-8"?>
<!-- Generator: Adobe Illustrator 23.0.6, SVG Export Plug-In . SVG Version: 6.00 Build 0)  -->
<svg version="1.1" id="Layer_1" xmlns="http://www.w3.org/2000/svg" xmlns:xlink="http://www.w3.org/1999/xlink" x="0px" y="0px"
	 viewBox="0 0 171.7 34.6" style="enable-background:new 0 0 171.7 34.6;" xml:space="preserve">
<style type="text/css">
	.st0{fill:#D14242;}
	.st1{fill:#BA98CD;}
	.st2{fill:#80459C;}
	.st3{fill:#5A3583;}
	.st4{fill:#589C9D;}
	.st5{fill:#77CACE;}
	.st6{fill:#A3E0DF;}
	.st7{fill:#F5DC34;}
	.st8{fill:#EDC6AE;}
	.st9{fill:#E6B753;}
	.st10{fill:#D37E42;}
	.st11{fill:#BA0062;}
	.st12{fill:#B0E9B3;}
	.st13{fill:#ACBFE2;}
	.st14{fill:#7393E2;}
	.st15{fill:#2139F9;}
</style>
<rect x="-0.8" y="0.8" transform="matrix(1.447270e-10 -1 1 1.447270e-10 -0.8188 10.4174)" class="st0" width="11.2" height="9.6"/>
<rect x="11.4" y="1.1" transform="matrix(1.189867e-10 -1 1 1.189867e-10 11.4387 22.6749)" class="st1" width="11.2" height="9.1"/>
<rect x="23.6" y="0.6" transform="matrix(1.308048e-10 -1 1 1.308048e-10 23.6438 34.88)" class="st2" width="11.2" height="10"/>
<rect x="35.1" y="1.8" transform="matrix(9.923624e-11 -1 1 9.923624e-11 35.1407 46.3769)" class="st3" width="11.2" height="7.6"/>
<rect x="42.7" y="5.1" transform="matrix(1.456974e-11 -1 1 1.456974e-11 42.6633 53.8994)" class="st4" width="11.2" height="1"/>
<rect x="50.1" y="1.4" transform="matrix(1.102452e-10 -1 1 1.102452e-10 50.1432 61.3794)" class="st5" width="11.2" height="8.4"/>
<rect x="60.3" y="0.6" transform="matrix(1.308048e-10 -1 1 1.308048e-10 60.2539 71.4901)" class="st6" width="11.2" height="10"/>
<rect x="71.9" y="1.6" transform="matrix(1.040928e-10 -1 1 1.040928e-10 71.9241 83.1603)" class="st7" width="11.2" height="8"/>
<rect x="82.4" y="2.4" transform="matrix(8.547658e-11 -1 1 8.547658e-11 82.3533 93.5895)" class="st8" width="11.2" height="6.5"/>
<rect x="92" y="2" transform="matrix(9.421803e-11 -1 1 9.421803e-11 92.0496 103.2858)" class="st9" width="11.2" height="7.2"/>
<rect x="104.7" y="4.8" transform="matrix(2.234041e-11 -1 1 2.234041e-11 104.6727 115.9088)" class="st10" width="11.2" height="1.7"/>
<rect x="114.3" y="-0.1" transform="matrix(1.495835e-10 -1 1 1.495835e-10 114.3233 125.5595)" class="st11" width="11.2" height="11.3"/>
<rect x="127.3" y="1.5" transform="matrix(1.094361e-10 -1 1 1.094361e-10 127.2723 138.5085)" class="st12" width="11.2" height="8.3"/>
<rect x="138.5" y="0.1" transform="matrix(1.442411e-10 -1 1 1.442411e-10 138.5277 149.7639)" class="st13" width="11.2" height="11"/>
<rect x="150.7" y="0.5" transform="matrix(1.343664e-10 -1 1 1.343664e-10 150.7336 161.9698)" class="st14" width="11.2" height="10.2"/>
<rect x="161.7" y="1.3" transform="matrix(1.129968e-10 -1 1 1.129968e-10 161.7361 172.9722)" class="st15" width="11.2" height="8.7"/>
<g>
	<path d="M0,28.8C0,25.4,2.5,23,5.7,23c1.6,0,2.8,0.6,3.8,1.6c0.1,0.1,0.1,0.2,0.1,0.3c0,0.3-0.2,0.5-0.5,0.5
		c-0.1,0-0.3-0.1-0.4-0.2c-0.8-0.8-1.9-1.4-3.1-1.4c-2.6,0-4.6,2-4.6,4.9c0,2.9,2,4.9,4.6,4.9c1.2,0,2.4-0.5,3.1-1.4
		c0.1-0.1,0.2-0.2,0.3-0.2c0.3,0,0.5,0.2,0.5,0.5c0,0.1-0.1,0.3-0.1,0.3c-1,1-2.2,1.6-3.8,1.6C2.5,34.6,0,32.3,0,28.8z"/>
	<path d="M20.6,34v-4.9h-7.1V34c0,0.3-0.2,0.5-0.5,0.5c-0.3,0-0.5-0.2-0.5-0.5V23.6c0-0.3,0.2-0.5,0.5-0.5c0.3,0,0.5,0.2,0.5,0.5
		v4.6h7.1v-4.6c0-0.3,0.2-0.5,0.5-0.5c0.3,0,0.5,0.2,0.5,0.5V34c0,0.3-0.2,0.5-0.5,0.5C20.8,34.5,20.6,34.2,20.6,34z"/>
	<path d="M34.2,34c0,0.3-0.2,0.5-0.5,0.5c-0.2,0-0.4-0.1-0.5-0.3l-1-2.5h-6l-1,2.5c-0.1,0.2-0.3,0.3-0.5,0.3c-0.3,0-0.5-0.2-0.5-0.5
		c0-0.1,0-0.1,0.1-0.2l4.1-10.1c0.1-0.3,0.4-0.5,0.8-0.5c0.4,0,0.7,0.2,0.8,0.5l4.1,10.1C34.2,33.8,34.2,33.9,34.2,34z M31.9,30.8
		l-2.7-6.7l-2.6,6.7H31.9z"/>
	<path d="M44.5,33.7c0.1,0.1,0.1,0.2,0.1,0.3c0,0.2-0.2,0.5-0.5,0.5c-0.2,0-0.3-0.1-0.4-0.2l-3.1-4.5h-2.6V34c0,0.3-0.2,0.5-0.5,0.5
		S37,34.2,37,34V23.7c0-0.3,0.2-0.5,0.5-0.5h3.7c1.9,0,3.4,1.2,3.4,3.3c0,2-1.3,3.1-2.9,3.2L44.5,33.7z M37.9,28.9h3.1
		c1.5,0,2.5-1,2.5-2.4s-1-2.4-2.5-2.4h-3.1V28.9z"/>
	<path d="M47.8,34V23.6c0-0.3,0.2-0.5,0.5-0.5c0.3,0,0.5,0.2,0.5,0.5V34c0,0.3-0.2,0.5-0.5,0.5C48,34.5,47.8,34.2,47.8,34z"/>
	<path d="M55.3,34v-9.9H52c-0.2,0-0.4-0.2-0.4-0.4c0-0.2,0.2-0.4,0.4-0.4h7.6c0.2,0,0.4,0.2,0.4,0.4c0,0.2-0.2,0.4-0.4,0.4h-3.3V34
		c0,0.3-0.2,0.5-0.5,0.5S55.3,34.2,55.3,34z"/>
	<path d="M70.8,34c0,0.3-0.2,0.5-0.5,0.5c-0.2,0-0.4-0.1-0.5-0.3l-1-2.5h-6l-1,2.5c-0.1,0.2-0.3,0.3-0.5,0.3c-0.3,0-0.5-0.2-0.5-0.5
		c0-0.1,0-0.1,0.1-0.2l4.1-10.1c0.1-0.3,0.4-0.5,0.8-0.5c0.4,0,0.7,0.2,0.8,0.5l4.1,10.1C70.8,33.8,70.8,33.9,70.8,34z M68.5,30.8
		l-2.7-6.7l-2.6,6.7H68.5z"/>
	<path d="M73.6,33.9V23.7c0-0.3,0.2-0.5,0.5-0.5h4.1c1.9,0,3.1,1.1,3.1,2.9c0,1.4-1,2.4-2,2.6c1.2,0.2,2.2,1.4,2.2,2.8
		c0,1.9-1.2,3-3.2,3h-4.2C73.7,34.4,73.6,34.2,73.6,33.9z M78.1,28.2c1.4,0,2.2-0.9,2.2-2.1c0-1.1-0.8-2.1-2.2-2.1h-3.5v4.2H78.1z
		 M78.1,33.6c1.5,0,2.4-0.9,2.4-2.2c0-1.1-0.8-2.2-2.4-2.2h-3.6v4.4H78.1z"/>
	<path d="M84.7,33.9V23.6c0-0.3,0.2-0.5,0.5-0.5c0.3,0,0.5,0.2,0.5,0.5v9.9h5.1c0.2,0,0.4,0.2,0.4,0.4c0,0.2-0.2,0.4-0.4,0.4h-5.5
		C84.9,34.4,84.7,34.2,84.7,33.9z"/>
	<path d="M94.1,33.9V23.7c0-0.3,0.2-0.5,0.5-0.5h6.2c0.2,0,0.4,0.2,0.4,0.4c0,0.2-0.2,0.4-0.4,0.4H95v4.2h5.7c0.2,0,0.4,0.2,0.4,0.4
		s-0.2,0.4-0.4,0.4H95v4.4h5.8c0.2,0,0.4,0.2,0.4,0.4c0,0.2-0.2,0.4-0.4,0.4h-6.2C94.3,34.4,94.1,34.2,94.1,33.9z"/>
	<path d="M109.4,23.2h1.7v11.2h-1.7V23.2z"/>
	<path d="M123.9,25.5l-3.6,8.9h-0.7l-3.6-8.9v8.9h-1.7V23.2h2.4l3.3,8.1l3.3-8.1h2.4v11.2h-1.7V25.5z"/>
	<path d="M128.7,23.2h4.7c2.3,0,3.6,1.6,3.6,3.5c0,1.9-1.3,3.5-3.6,3.5h-3v4.3h-1.7V23.2z M133.2,24.7h-2.8v3.9h2.8
		c1.2,0,2.1-0.8,2.1-2C135.3,25.5,134.5,24.7,133.2,24.7z"/>
	<path d="M146.9,32.1h-5.5l-0.9,2.3h-1.9l4.5-11.2h2.1l4.5,11.2h-1.9L146.9,32.1z M141.9,30.6h4.5l-2.3-5.9L141.9,30.6z"/>
	<path d="M151.2,28.8c0-3.5,2.6-5.8,5.8-5.8c2.2,0,3.6,1.1,4.5,2.4l-1.4,0.8c-0.6-0.9-1.7-1.6-3-1.6c-2.3,0-4,1.8-4,4.3
		c0,2.5,1.8,4.3,4,4.3c1.3,0,2.4-0.7,3-1.6l1.4,0.8c-0.9,1.3-2.3,2.4-4.5,2.4C153.8,34.6,151.2,32.3,151.2,28.8z"/>
	<path d="M166.5,24.7H163v-1.5h8.6v1.5h-3.5v9.8h-1.7V24.7z"/>
</g>
</svg>
